<svg xmlns="http://www.w3.org/2000/svg" width="72" height="73" viewBox="0 0 72 73" version="1.1"><path d="M 44 1.500 C 44 1.775, 44.225 2, 44.500 2 C 44.775 2, 45 1.775, 45 1.500 C 45 1.225, 44.775 1, 44.500 1 C 44.225 1, 44 1.225, 44 1.500 M 49.500 4 C 50.495 5.100, 51.535 6, 51.810 6 C 52.085 6, 51.495 5.100, 50.500 4 C 49.505 2.900, 48.465 2, 48.190 2 C 47.915 2, 48.505 2.900, 49.500 4 M 43.924 5.750 L 41.500 8.500 44.250 6.076 C 45.763 4.742, 47 3.505, 47 3.326 C 47 2.541, 46.190 3.180, 43.924 5.750 M 53.079 8.583 C 53.127 9.748, 53.364 9.985, 53.683 9.188 C 53.972 8.466, 53.936 7.603, 53.604 7.271 C 53.272 6.939, 53.036 7.529, 53.079 8.583 M 56 8 C 56 8.733, 56.300 9.033, 56.667 8.667 C 57.033 8.300, 57.033 7.700, 56.667 7.333 C 56.300 6.967, 56 7.267, 56 8 M 55 11 C 55 11.733, 55.300 12.033, 55.667 11.667 C 56.033 11.300, 56.033 10.700, 55.667 10.333 C 55.300 9.967, 55 10.267, 55 11 M 36.872 12.750 C 35.629 14.336, 35.664 14.371, 37.250 13.128 C 38.916 11.821, 39.445 11, 38.622 11 C 38.415 11, 37.627 11.787, 36.872 12.750 M 42 12.500 C 42 12.775, 42.225 13, 42.500 13 C 42.775 13, 43 12.775, 43 12.500 C 43 12.225, 42.775 12, 42.500 12 C 42.225 12, 42 12.225, 42 12.500 M 53 14 C 53 14.733, 53.300 15.033, 53.667 14.667 C 54.033 14.300, 54.033 13.700, 53.667 13.333 C 53.300 12.967, 53 13.267, 53 14 M 44 14.500 C 44 14.775, 44.225 15, 44.500 15 C 44.775 15, 45 14.775, 45 14.500 C 45 14.225, 44.775 14, 44.500 14 C 44.225 14, 44 14.225, 44 14.500 M 30.453 19.250 L 26.500 23.500 30.750 19.547 C 34.702 15.871, 35.460 15, 34.703 15 C 34.540 15, 32.627 16.913, 30.453 19.250 M 64 15.500 C 64 15.775, 64.225 16, 64.500 16 C 64.775 16, 65 15.775, 65 15.500 C 65 15.225, 64.775 15, 64.500 15 C 64.225 15, 64 15.225, 64 15.500 M 45.768 17.168 C 46.350 17.750, 47.415 18.028, 48.137 17.788 C 48.886 17.538, 48.432 17.085, 47.080 16.731 C 45.417 16.296, 45.026 16.426, 45.768 17.168 M 60 16.500 C 60 16.775, 60.225 17, 60.500 17 C 60.775 17, 61 16.775, 61 16.500 C 61 16.225, 60.775 16, 60.500 16 C 60.225 16, 60 16.225, 60 16.500 M 55 17.500 C 55 17.775, 55.225 18, 55.500 18 C 55.775 18, 56 17.775, 56 17.500 C 56 17.225, 55.775 17, 55.500 17 C 55.225 17, 55 17.225, 55 17.500 M 36 18.500 C 36 18.775, 36.225 19, 36.500 19 C 36.775 19, 37 18.775, 37 18.500 C 37 18.225, 36.775 18, 36.500 18 C 36.225 18, 36 18.225, 36 18.500 M 41.500 19 C 41.840 19.550, 42.343 20, 42.618 20 C 42.893 20, 42.840 19.550, 42.500 19 C 42.160 18.450, 41.657 18, 41.382 18 C 41.107 18, 41.160 18.450, 41.500 19 M 57 18.500 C 57 18.775, 57.225 19, 57.500 19 C 57.775 19, 58 18.775, 58 18.500 C 58 18.225, 57.775 18, 57.500 18 C 57.225 18, 57 18.225, 57 18.500 M 49 19.500 C 49 19.775, 49.225 20, 49.500 20 C 49.775 20, 50 19.775, 50 19.500 C 50 19.225, 49.775 19, 49.500 19 C 49.225 19, 49 19.225, 49 19.500 M 60.333 19.667 C 60.700 20.033, 61.300 20.033, 61.667 19.667 C 62.033 19.300, 61.733 19, 61 19 C 60.267 19, 59.967 19.300, 60.333 19.667 M 40 21.378 C 40 21.585, 40.788 22.373, 41.750 23.128 C 43.336 24.371, 43.371 24.336, 42.128 22.750 C 40.821 21.084, 40 20.555, 40 21.378 M 50.768 22.168 C 51.350 22.750, 52.415 23.028, 53.137 22.788 C 53.886 22.538, 53.432 22.085, 52.080 21.731 C 50.417 21.296, 50.026 21.426, 50.768 22.168 M 27.477 31.250 L 19.500 39.500 27.750 31.523 C 35.412 24.115, 36.456 23, 35.727 23 C 35.576 23, 31.864 26.712, 27.477 31.250 M 54.507 23.989 C 54.157 24.555, 54.558 24.723, 55.448 24.382 C 57.180 23.717, 57.497 23, 56.059 23 C 55.541 23, 54.843 23.445, 54.507 23.989 M 66.437 27.250 L 63.500 30.500 66.750 27.563 C 68.537 25.948, 70 24.485, 70 24.313 C 70 23.540, 69.175 24.221, 66.437 27.250 M 47 28.500 C 48.866 30.425, 50.617 32, 50.892 32 C 51.167 32, 49.866 30.425, 48 28.500 C 46.134 26.575, 44.383 25, 44.108 25 C 43.833 25, 45.134 26.575, 47 28.500 M 55.500 27 C 55.840 27.550, 56.343 28, 56.618 28 C 56.893 28, 56.840 27.550, 56.500 27 C 56.160 26.450, 55.657 26, 55.382 26 C 55.107 26, 55.160 26.450, 55.500 27 M 67.453 30.250 L 63.500 34.500 67.750 30.547 C 71.702 26.871, 72.460 26, 71.703 26 C 71.540 26, 69.627 27.913, 67.453 30.250 M 58 27.500 C 58 27.775, 58.225 28, 58.500 28 C 58.775 28, 59 27.775, 59 27.500 C 59 27.225, 58.775 27, 58.500 27 C 58.225 27, 58 27.225, 58 27.500 M 61 28.500 C 61 28.775, 61.225 29, 61.500 29 C 61.775 29, 62 28.775, 62 28.500 C 62 28.225, 61.775 28, 61.500 28 C 61.225 28, 61 28.225, 61 28.500 M 21.453 33.250 L 17.500 37.500 21.750 33.547 C 24.087 31.373, 26 29.460, 26 29.297 C 26 28.540, 25.129 29.298, 21.453 33.250 M 59 29.500 C 59 29.775, 59.225 30, 59.500 30 C 59.775 30, 60 29.775, 60 29.500 C 60 29.225, 59.775 29, 59.500 29 C 59.225 29, 59 29.225, 59 29.500 M 53 31.500 C 53 31.775, 53.225 32, 53.500 32 C 53.775 32, 54 31.775, 54 31.500 C 54 31.225, 53.775 31, 53.500 31 C 53.225 31, 53 31.225, 53 31.500 M 60.336 31.669 C 60.703 32.037, 60.216 33.274, 59.252 34.419 C 57.505 36.495, 57.506 36.495, 59.726 34.616 C 61.692 32.954, 61.988 31, 60.274 31 C 59.940 31, 59.968 31.301, 60.336 31.669 M 13.612 36.885 C 10.762 39.804, 10.152 40.963, 11.159 41.545 C 11.897 41.972, 12.153 41.939, 11.730 41.473 C 11.306 41.007, 12.635 38.910, 14.683 36.813 C 16.730 34.716, 18.181 33, 17.906 33 C 17.631 33, 15.699 34.748, 13.612 36.885 M 47.333 33.667 C 47.700 34.033, 48.300 34.033, 48.667 33.667 C 49.033 33.300, 48.733 33, 48 33 C 47.267 33, 46.967 33.300, 47.333 33.667 M 54 34 C 54 34.733, 54.300 35.033, 54.667 34.667 C 55.033 34.300, 55.033 33.700, 54.667 33.333 C 54.300 32.967, 54 33.267, 54 34 M 56 35.500 C 56 35.775, 56.225 36, 56.500 36 C 56.775 36, 57 35.775, 57 35.500 C 57 35.225, 56.775 35, 56.500 35 C 56.225 35, 56 35.225, 56 35.500 M 60.872 36.750 C 59.629 38.336, 59.664 38.371, 61.250 37.128 C 62.212 36.373, 63 35.585, 63 35.378 C 63 34.555, 62.179 35.084, 60.872 36.750 M 38 36.500 C 38 36.775, 38.225 37, 38.500 37 C 38.775 37, 39 36.775, 39 36.500 C 39 36.225, 38.775 36, 38.500 36 C 38.225 36, 38 36.225, 38 36.500 M 44.333 36.667 C 44.700 37.033, 45.300 37.033, 45.667 36.667 C 46.033 36.300, 45.733 36, 45 36 C 44.267 36, 43.967 36.300, 44.333 36.667 M 50 36.500 C 50 36.775, 50.225 37, 50.500 37 C 50.775 37, 51 36.775, 51 36.500 C 51 36.225, 50.775 36, 50.500 36 C 50.225 36, 50 36.225, 50 36.500 M 54.255 38.032 C 56.858 40.056, 57.210 42.805, 54.681 41.356 C 54.031 40.984, 53.847 41.061, 54.270 41.527 C 54.694 41.993, 53.346 44.202, 51.274 46.437 C 48.188 49.766, 48.417 49.640, 52.546 45.742 C 56.724 41.797, 57.831 41.199, 59.027 42.242 C 59.821 42.934, 59.352 42.221, 57.985 40.658 C 56.618 39.095, 54.600 37.383, 53.500 36.853 C 52.400 36.323, 52.740 36.854, 54.255 38.032 M 17 39 C 17 39.733, 17.300 40.033, 17.667 39.667 C 18.033 39.300, 18.033 38.700, 17.667 38.333 C 17.300 37.967, 17 38.267, 17 39 M 38.405 40.250 L 36.500 42.500 38.750 40.595 C 40.864 38.805, 41.455 38, 40.655 38 C 40.465 38, 39.453 39.013, 38.405 40.250 M 34.405 40.155 C 33.962 40.870, 34.130 41.038, 34.845 40.595 C 35.998 39.883, 36.393 39, 35.559 39 C 35.316 39, 34.797 39.520, 34.405 40.155 M 33 43 C 33 43.733, 33.300 44.033, 33.667 43.667 C 34.033 43.300, 34.033 42.700, 33.667 42.333 C 33.300 41.967, 33 42.267, 33 43 M 62 42.500 C 62 42.775, 62.225 43, 62.500 43 C 62.775 43, 63 42.775, 63 42.500 C 63 42.225, 62.775 42, 62.500 42 C 62.225 42, 62 42.225, 62 42.500 M 4.924 45.750 L 2.500 48.500 5.250 46.076 C 6.763 44.742, 8 43.505, 8 43.326 C 8 42.541, 7.190 43.180, 4.924 45.750 M 9.500 44 C 9.840 44.550, 10.343 45, 10.618 45 C 10.893 45, 10.840 44.550, 10.500 44 C 10.160 43.450, 9.657 43, 9.382 43 C 9.107 43, 9.160 43.450, 9.500 44 M 12 43.500 C 12 43.775, 12.225 44, 12.500 44 C 12.775 44, 13 43.775, 13 43.500 C 13 43.225, 12.775 43, 12.500 43 C 12.225 43, 12 43.225, 12 43.500 M 36 43.500 C 36 43.775, 36.225 44, 36.500 44 C 36.775 44, 37 43.775, 37 43.500 C 37 43.225, 36.775 43, 36.500 43 C 36.225 43, 36 43.225, 36 43.500 M 44.762 43.707 C 46.006 43.946, 47.806 43.937, 48.762 43.687 C 49.718 43.437, 48.700 43.241, 46.500 43.252 C 44.300 43.263, 43.518 43.468, 44.762 43.707 M 41.300 49 C 41.300 52.025, 41.487 53.263, 41.716 51.750 C 41.945 50.237, 41.945 47.763, 41.716 46.250 C 41.487 44.737, 41.300 45.975, 41.300 49 M 13 45.500 C 13 45.775, 13.225 46, 13.500 46 C 13.775 46, 14 45.775, 14 45.500 C 14 45.225, 13.775 45, 13.500 45 C 13.225 45, 13 45.225, 13 45.500 M 15.500 46 C 15.840 46.550, 16.343 47, 16.618 47 C 16.893 47, 16.840 46.550, 16.500 46 C 16.160 45.450, 15.657 45, 15.382 45 C 15.107 45, 15.160 45.450, 15.500 46 M 32 45.500 C 32 45.775, 32.225 46, 32.500 46 C 32.775 46, 33 45.775, 33 45.500 C 33 45.225, 32.775 45, 32.500 45 C 32.225 45, 32 45.225, 32 45.500 M 60 45.500 C 60 45.775, 60.225 46, 60.500 46 C 60.775 46, 61 45.775, 61 45.500 C 61 45.225, 60.775 45, 60.500 45 C 60.225 45, 60 45.225, 60 45.500 M 63 45.500 C 63 45.775, 63.225 46, 63.500 46 C 63.775 46, 64 45.775, 64 45.500 C 64 45.225, 63.775 45, 63.500 45 C 63.225 45, 63 45.225, 63 45.500 M 0 46.500 C 0 46.775, 0.225 47, 0.500 47 C 0.775 47, 1 46.775, 1 46.500 C 1 46.225, 0.775 46, 0.500 46 C 0.225 46, 0 46.225, 0 46.500 M 32.079 48.583 C 32.127 49.748, 32.364 49.985, 32.683 49.188 C 32.972 48.466, 32.936 47.603, 32.604 47.271 C 32.272 46.939, 32.036 47.529, 32.079 48.583 M 14 48.500 C 14 48.775, 14.225 49, 14.500 49 C 14.775 49, 15 48.775, 15 48.500 C 15 48.225, 14.775 48, 14.500 48 C 14.225 48, 14 48.225, 14 48.500 M 17 48.500 C 17 48.775, 17.225 49, 17.500 49 C 17.775 49, 18 48.775, 18 48.500 C 18 48.225, 17.775 48, 17.500 48 C 17.225 48, 17 48.225, 17 48.500 M 52.908 51 C 52.501 54.488, 52.479 54.502, 46.500 55.082 L 40.500 55.664 46.731 55.832 C 52.552 55.989, 53.002 55.841, 53.570 53.579 C 53.904 52.248, 53.983 50.335, 53.747 49.329 C 53.492 48.248, 53.149 48.932, 52.908 51 M 46 49.500 C 46 49.775, 46.225 50, 46.500 50 C 46.775 50, 47 49.775, 47 49.500 C 47 49.225, 46.775 49, 46.500 49 C 46.225 49, 46 49.225, 46 49.500 M 18 50.383 C 18 50.594, 18.901 51.002, 20.001 51.290 C 21.102 51.578, 21.751 51.405, 21.442 50.907 C 20.904 50.036, 18 49.594, 18 50.383 M 4 54.500 C 5.866 56.425, 7.617 58, 7.892 58 C 8.167 58, 6.866 56.425, 5 54.500 C 3.134 52.575, 1.383 51, 1.108 51 C 0.833 51, 2.134 52.575, 4 54.500 M 27 51.378 C 27 51.585, 27.788 52.373, 28.750 53.128 C 30.336 54.371, 30.371 54.336, 29.128 52.750 C 27.821 51.084, 27 50.555, 27 51.378 M 32 51.500 C 32 51.775, 32.225 52, 32.500 52 C 32.775 52, 33 51.775, 33 51.500 C 33 51.225, 32.775 51, 32.500 51 C 32.225 51, 32 51.225, 32 51.500 M 63 51.500 C 63 51.775, 63.225 52, 63.500 52 C 63.775 52, 64 51.775, 64 51.500 C 64 51.225, 63.775 51, 63.500 51 C 63.225 51, 63 51.225, 63 51.500 M 35 52.500 C 35 52.775, 35.225 53, 35.500 53 C 35.775 53, 36 52.775, 36 52.500 C 36 52.225, 35.775 52, 35.500 52 C 35.225 52, 35 52.225, 35 52.500 M 11 53.500 C 11 53.775, 11.225 54, 11.500 54 C 11.775 54, 12 53.775, 12 53.500 C 12 53.225, 11.775 53, 11.500 53 C 11.225 53, 11 53.225, 11 53.500 M 19.500 54 C 19.840 54.550, 20.343 55, 20.618 55 C 20.893 55, 20.840 54.550, 20.500 54 C 20.160 53.450, 19.657 53, 19.382 53 C 19.107 53, 19.160 53.450, 19.500 54 M 22 53.500 C 22 53.775, 22.225 54, 22.500 54 C 22.775 54, 23 53.775, 23 53.500 C 23 53.225, 22.775 53, 22.500 53 C 22.225 53, 22 53.225, 22 53.500 M 63 53.500 C 63 53.775, 63.225 54, 63.500 54 C 63.775 54, 64 53.775, 64 53.500 C 64 53.225, 63.775 53, 63.500 53 C 63.225 53, 63 53.225, 63 53.500 M 15 54.500 C 15 54.775, 15.225 55, 15.500 55 C 15.775 55, 16 54.775, 16 54.500 C 16 54.225, 15.775 54, 15.500 54 C 15.225 54, 15 54.225, 15 54.500 M 31 54.500 C 31 54.775, 31.225 55, 31.500 55 C 31.775 55, 32 54.775, 32 54.500 C 32 54.225, 31.775 54, 31.500 54 C 31.225 54, 31 54.225, 31 54.500 M 59.459 55.067 C 59.096 55.653, 59.014 56.348, 59.276 56.610 C 59.538 56.872, 60.019 56.392, 60.345 55.543 C 61.021 53.781, 60.445 53.471, 59.459 55.067 M 23 55.383 C 23 55.594, 23.901 56.002, 25.001 56.290 C 26.102 56.578, 26.751 56.405, 26.442 55.907 C 25.904 55.036, 23 54.594, 23 55.383 M 33 55.500 C 33 55.775, 33.225 56, 33.500 56 C 33.775 56, 34 55.775, 34 55.500 C 34 55.225, 33.775 55, 33.500 55 C 33.225 55, 33 55.225, 33 55.500 M 36 55.500 C 36 55.775, 36.225 56, 36.500 56 C 36.775 56, 37 55.775, 37 55.500 C 37 55.225, 36.775 55, 36.500 55 C 36.225 55, 36 55.225, 36 55.500 M 11.500 56.724 C 12.600 56.994, 14.175 57.729, 15 58.358 C 16.305 59.351, 16.321 59.272, 15.128 57.750 C 14.373 56.788, 12.798 56.052, 11.628 56.116 C 9.607 56.226, 9.600 56.257, 11.500 56.724 M 62 56.500 C 62 56.775, 62.225 57, 62.500 57 C 62.775 57, 63 56.775, 63 56.500 C 63 56.225, 62.775 56, 62.500 56 C 62.225 56, 62 56.225, 62 56.500 M 34 57.500 C 34 57.775, 34.225 58, 34.500 58 C 34.775 58, 35 57.775, 35 57.500 C 35 57.225, 34.775 57, 34.500 57 C 34.225 57, 34 57.225, 34 57.500 M 25.014 59.414 C 25.662 60.062, 26.338 60.062, 26.986 59.414 C 27.633 58.767, 27.295 58.429, 26 58.429 C 24.705 58.429, 24.367 58.767, 25.014 59.414 M 56.405 59.155 C 55.962 59.870, 56.130 60.038, 56.845 59.595 C 57.998 58.883, 58.393 58, 57.559 58 C 57.316 58, 56.797 58.520, 56.405 59.155 M 58.872 60.750 C 57.629 62.336, 57.664 62.371, 59.250 61.128 C 60.212 60.373, 61 59.585, 61 59.378 C 61 58.555, 60.179 59.084, 58.872 60.750 M 16.079 61.583 C 16.127 62.748, 16.364 62.985, 16.683 62.188 C 16.972 61.466, 16.936 60.603, 16.604 60.271 C 16.272 59.939, 16.036 60.529, 16.079 61.583 M 37 61.500 C 37 61.775, 37.225 62, 37.500 62 C 37.775 62, 38 61.775, 38 61.500 C 38 61.225, 37.775 61, 37.500 61 C 37.225 61, 37 61.225, 37 61.500 M 53 61.500 C 53 61.775, 53.225 62, 53.500 62 C 53.775 62, 54 61.775, 54 61.500 C 54 61.225, 53.775 61, 53.500 61 C 53.225 61, 53 61.225, 53 61.500 M 39 62.500 C 39 62.775, 39.225 63, 39.500 63 C 39.775 63, 40 62.775, 40 62.500 C 40 62.225, 39.775 62, 39.500 62 C 39.225 62, 39 62.225, 39 62.500 M 46.333 62.667 C 46.700 63.033, 47.300 63.033, 47.667 62.667 C 48.033 62.300, 47.733 62, 47 62 C 46.267 62, 45.967 62.300, 46.333 62.667 M 29 63.500 C 29 63.775, 29.225 64, 29.500 64 C 29.775 64, 30 63.775, 30 63.500 C 30 63.225, 29.775 63, 29.500 63 C 29.225 63, 29 63.225, 29 63.500 M 55 63.500 C 55 63.775, 55.225 64, 55.500 64 C 55.775 64, 56 63.775, 56 63.500 C 56 63.225, 55.775 63, 55.500 63 C 55.225 63, 55 63.225, 55 63.500 M 15 64.646 C 15 65.185, 16.462 66.948, 18.250 68.563 L 21.500 71.500 18.500 68.005 C 16.850 66.083, 15.387 64.320, 15.250 64.088 C 15.113 63.856, 15 64.107, 15 64.646 M 42 64.500 C 42 64.775, 42.225 65, 42.500 65 C 42.775 65, 43 64.775, 43 64.500 C 43 64.225, 42.775 64, 42.500 64 C 42.225 64, 42 64.225, 42 64.500 M 53 64.500 C 53 64.775, 53.225 65, 53.500 65 C 53.775 65, 54 64.775, 54 64.500 C 54 64.225, 53.775 64, 53.500 64 C 53.225 64, 53 64.225, 53 64.500 M 46.750 65.662 C 47.438 65.940, 48.563 65.940, 49.250 65.662 C 49.938 65.385, 49.375 65.158, 48 65.158 C 46.625 65.158, 46.063 65.385, 46.750 65.662 M 27 71.500 C 27 71.775, 27.225 72, 27.500 72 C 27.775 72, 28 71.775, 28 71.500 C 28 71.225, 27.775 71, 27.500 71 C 27.225 71, 27 71.225, 27 71.500" stroke="none" fill="#04a4c4" fill-rule="evenodd"/><path d="M 23.222 23.299 C 10.450 36.113, 0 47.357, 0 48.285 C 0 49.214, 1.688 51.541, 3.750 53.458 C 6.881 56.367, 8.022 56.849, 10.665 56.376 C 13.288 55.906, 14.115 56.245, 15.497 58.356 C 16.487 59.866, 16.903 61.732, 16.519 62.942 C 15.777 65.277, 21.476 72.951, 23.973 72.982 C 24.783 72.992, 28.205 70.266, 31.576 66.925 C 37.441 61.111, 37.783 60.925, 39.477 62.620 C 40.620 63.762, 43.242 64.530, 46.874 64.784 C 51.535 65.110, 53.085 64.776, 55.908 62.839 C 63.474 57.647, 65.636 50.487, 62.070 42.426 L 59.983 37.708 65.992 31.605 C 69.296 28.249, 72 24.803, 72 23.948 C 72 23.092, 70.456 20.896, 68.569 19.066 C 65.884 16.464, 64.545 15.854, 62.414 16.261 C 58.591 16.992, 54.688 13.090, 55.602 9.449 C 56.122 7.377, 55.585 6.167, 52.930 3.428 C 51.103 1.543, 48.896 -0, 48.026 -0 C 47.156 -0, 35.994 10.484, 23.222 23.299 M 44.892 4.821 C 42.170 7.264, 41.747 8.117, 42.750 9.133 C 44.801 11.211, 44.177 12.261, 41.318 11.544 C 38.867 10.929, 37.405 12.151, 24.404 25.685 C 15.626 34.823, 10.523 40.864, 11.086 41.450 C 11.589 41.973, 12 42.989, 12 43.708 C 12 44.757, 11.611 44.774, 10.042 43.794 C 8.382 42.758, 7.698 42.935, 5.542 44.960 C 4.144 46.274, 3 47.867, 3 48.500 C 3 50.713, 7.593 54.050, 10.085 53.648 C 12.993 53.179, 17.520 55.306, 18.379 57.545 C 18.720 58.435, 19 60.623, 19 62.407 C 19 64.585, 19.832 66.433, 21.529 68.027 L 24.058 70.403 27.279 67.172 C 29.809 64.634, 30.204 63.757, 29.122 63.082 C 28.364 62.610, 28.066 61.701, 28.461 61.063 C 29.001 60.189, 29.538 60.202, 30.639 61.116 C 31.800 62.079, 32.419 62.010, 33.653 60.776 C 35.298 59.131, 34.713 55, 32.835 55 C 30.899 55, 18 41.699, 18 39.702 C 18 37.072, 34.536 19.155, 37.694 18.362 C 39.786 17.837, 41.206 18.752, 46.629 24.119 C 50.176 27.628, 53.330 31.496, 53.638 32.714 C 54.408 35.754, 57.667 36.612, 60.095 34.414 C 61.427 33.209, 61.722 32.322, 61.024 31.624 C 60.461 31.061, 60 29.999, 60 29.265 C 60 28.218, 60.454 28.173, 62.102 29.054 C 63.880 30.006, 64.651 29.751, 67.106 27.399 L 70.008 24.618 67.317 21.809 C 65.465 19.875, 63.628 19, 61.424 19 C 56.610 19, 53.599 16.065, 53.606 11.379 C 53.610 8.555, 52.887 6.721, 50.948 4.637 L 48.283 1.775 44.892 4.821 M 45 14.531 C 45 16.143, 47.662 17.672, 48.686 16.648 C 49.398 15.935, 47.138 13, 45.878 13 C 45.395 13, 45 13.689, 45 14.531 M 50 19.531 C 50 21.143, 52.662 22.672, 53.686 21.648 C 54.398 20.935, 52.138 18, 50.878 18 C 50.395 18, 50 18.689, 50 19.531 M 28.494 30.006 L 19.530 39.012 26.098 45.580 L 32.667 52.148 32.667 48.824 C 32.668 41.098, 38.974 34.153, 46.532 33.554 C 48.472 33.400, 50.359 32.974, 50.726 32.607 C 51.646 31.687, 40.861 21.050, 38.979 21.022 C 38.143 21.010, 33.424 25.053, 28.494 30.006 M 55 24.878 C 55 25.360, 55.635 26.282, 56.411 26.926 C 57.978 28.227, 59.581 26.749, 58.500 25 C 57.738 23.768, 55 23.672, 55 24.878 M 41.190 38.007 C 39.348 39.140, 37.195 41.682, 36.337 43.736 C 30.659 57.324, 46.951 68.679, 57.469 58.465 C 60.682 55.344, 60.865 54.805, 60.677 48.991 C 60.494 43.334, 60.189 42.561, 56.971 39.612 C 52.531 35.543, 46.233 34.903, 41.190 38.007 M 51.030 44.556 C 48.572 46.942, 46.800 49.133, 47.093 49.426 C 47.385 49.719, 49.594 47.952, 52 45.500 C 57.688 39.705, 56.859 38.898, 51.030 44.556 M 42 43.500 C 42 43.775, 42.225 44, 42.500 44 C 42.775 44, 43 43.775, 43 43.500 C 43 43.225, 42.775 43, 42.500 43 C 42.225 43, 42 43.225, 42 43.500 M 13.525 45.959 C 12.922 46.935, 15.124 50, 16.429 50 C 17.563 50, 16.968 47.218, 15.589 46.074 C 14.617 45.267, 13.975 45.231, 13.525 45.959 M 53 47.500 C 53 47.775, 53.225 48, 53.500 48 C 53.775 48, 54 47.775, 54 47.500 C 54 47.225, 53.775 47, 53.500 47 C 53.225 47, 53 47.225, 53 47.500 M 18 51.686 C 18 52.144, 18.938 53.105, 20.085 53.821 C 21.924 54.969, 22.129 54.911, 21.824 53.323 C 21.483 51.552, 18 50.061, 18 51.686 M 41 54.500 C 41 54.775, 41.225 55, 41.500 55 C 41.775 55, 42 54.775, 42 54.500 C 42 54.225, 41.775 54, 41.500 54 C 41.225 54, 41 54.225, 41 54.500 M 53 54.500 C 53 54.775, 53.225 55, 53.500 55 C 53.775 55, 54 54.775, 54 54.500 C 54 54.225, 53.775 54, 53.500 54 C 53.225 54, 53 54.225, 53 54.500 M 23 56.893 C 23 57.907, 26.046 59.288, 26.743 58.590 C 26.995 58.339, 26.904 57.653, 26.541 57.067 C 25.743 55.776, 23 55.641, 23 56.893" stroke="none" fill="#04a4cc" fill-rule="evenodd"/></svg>